<svg width="162" height="69" viewBox="0 0 162 69" fill="none" xmlns="http://www.w3.org/2000/svg">
<path d="M99.0328 36.0786C101.516 33.4203 106.539 32.6588 109.952 36.3312C110.497 35.9013 111.013 35.4153 111.601 35.0433C116.853 31.7096 123.448 35.01 123.871 41.288C124.103 44.7061 123.991 48.1504 123.933 51.5824C123.901 53.4599 122.331 54.6986 120.285 54.66C118.239 54.6214 116.712 53.2335 116.698 51.2719C116.681 48.5785 116.721 45.8852 116.721 43.2006C116.721 41.5442 116.086 40.5283 114.882 40.2019C113.261 39.7633 111.782 40.8318 111.763 42.511C111.733 45.3184 111.763 48.1258 111.74 50.9455C111.722 53.681 109.661 55.2426 107.02 54.5425C105.504 54.1389 104.574 52.951 104.563 51.3543C104.563 48.4539 104.591 45.5535 104.563 42.6531C104.546 40.7371 102.954 39.6317 101.23 40.2862C100.242 40.6616 99.6609 41.5705 99.6504 42.8304C99.6328 45.6114 99.6346 48.3943 99.6258 51.1754C99.6258 53.3651 98.266 54.7039 96.0675 54.6969C93.7864 54.6969 92.3196 53.302 92.3196 51.1139C92.3196 46.7052 92.3237 42.2958 92.3319 37.8858C92.3319 36.0119 92.9898 34.9556 94.5058 34.4082C95.9639 33.8818 97.615 34.3608 98.659 35.6153C98.7854 35.7417 98.8889 35.8873 99.0328 36.0786Z" fill="black"/>
<path d="M24.9437 53.0528C23.626 54.825 21.61 55.4145 19.936 54.5214C18.7499 53.8915 18.0726 52.9247 18.0726 51.5298C18.0726 43.6831 18.0726 35.837 18.0726 27.9915C18.0726 25.8404 19.5395 24.4349 21.7573 24.4331C23.8734 24.4331 25.3526 25.8632 25.3754 27.9845C25.3964 30.0269 25.3754 32.0693 25.3754 34.1134V35.2679C28.3582 33.2607 31.4446 33.0782 34.6065 34.2345C36.912 35.0784 38.6649 36.6366 39.8703 38.7772C42.3759 43.2024 41.2951 49.2576 37.5156 52.6615C34.8188 55.0847 28.918 56.4673 24.9437 53.0528ZM29.6303 48.5908C32.1202 48.6206 34.0625 46.7432 34.0871 44.2832C34.088 43.1306 33.632 42.0247 32.819 41.2077C32.006 40.3907 30.9022 39.9294 29.7497 39.9247C27.3177 39.9019 25.3122 41.8004 25.2806 44.1499C25.272 44.7278 25.378 45.3016 25.5924 45.8384C25.8069 46.3751 26.1255 46.864 26.5299 47.2769C26.9343 47.6898 27.4165 48.0185 27.9487 48.244C28.4808 48.4695 29.0524 48.5874 29.6303 48.5908Z" fill="black"/>
<path d="M132.764 37.5209C132.978 37.2594 133.167 37.0401 133.343 36.819C134.901 34.7819 137.027 34.1187 139.473 34.3836C141.609 34.6135 143.088 36.3751 142.932 38.3929C142.756 40.6546 141.196 42.0601 138.908 41.9987C138.526 41.9881 138.145 41.925 137.763 41.8794C135.131 41.567 133.201 43.2831 133.201 45.9343C133.201 47.71 133.218 49.4874 133.201 51.2631C133.201 53.4494 131.832 54.7881 129.626 54.8004C127.421 54.8127 125.85 53.3721 125.836 51.2262C125.807 46.6385 125.79 42.0501 125.784 37.4612C125.773 36.7574 126.001 36.0705 126.43 35.5129C126.86 34.9552 127.466 34.5596 128.149 34.3906C129.635 33.9976 131.327 34.6573 132.069 35.961C132.339 36.433 132.516 36.9594 132.764 37.5209Z" fill="black"/>
<path d="M68.8181 18.3271C68.6181 21.2643 68.4233 24.2015 68.218 27.1388C68.1566 28.0021 67.5916 28.5513 66.802 28.5548C66.0124 28.5583 65.3983 28.0179 65.3632 27.1511C65.1351 22.6347 64.9211 18.1025 64.7456 13.5773C64.6912 12.1508 65.5492 11.2349 66.7687 11.2103C68.0513 11.1857 68.9181 12.1403 68.9427 13.6668C68.9672 15.1933 68.8479 16.5321 68.8479 18.0849C68.8005 18.0867 68.8584 18.3271 68.8181 18.3271Z" fill="url(#paint0_linear_413_464)"/>
<path d="M85.3678 18.9921C85.6854 18.7606 86.0604 18.6205 86.452 18.5871C86.8436 18.5537 87.2369 18.6282 87.5891 18.8026C87.7919 18.9047 87.9724 19.046 88.1202 19.2182C88.2681 19.3905 88.3804 19.5903 88.4506 19.8062C88.7928 20.7502 88.577 21.5837 87.84 22.275L79.2775 30.3217C78.9265 30.6533 78.5879 31.0077 78.2054 31.3043C77.6474 31.7359 76.9982 31.9114 76.4367 31.385C75.8752 30.8586 75.9296 30.1989 76.2946 29.5988C76.6145 29.1116 76.9724 28.6505 77.3649 28.2196C79.8565 25.2824 82.3375 22.3364 84.8677 19.4325C85.0164 19.2665 85.1843 19.1187 85.3678 18.9921Z" fill="url(#paint1_linear_413_464)"/>
<path d="M71.8554 28.8548C71.6444 28.6814 71.4897 28.4492 71.411 28.1877C71.3322 27.9262 71.333 27.6472 71.4132 27.3862C71.4307 27.3265 71.4483 27.2704 71.4676 27.2107C72.4478 24.2009 73.431 21.1912 74.4171 18.1814C74.768 17.0883 75.8349 16.5549 76.8648 16.9391C77.8948 17.3234 78.3159 18.3569 77.8228 19.4114C76.4402 22.3662 75.0154 25.3017 73.6117 28.2424C73.3135 28.8618 72.8046 29.2566 72.1343 29.0075C72.0336 28.9722 71.9394 28.9206 71.8554 28.8548Z" fill="url(#paint2_linear_413_464)"/>
<path d="M57.0253 30.3725C56.8303 30.5393 56.5859 30.6373 56.3298 30.6516C56.0736 30.6659 55.8199 30.5956 55.6076 30.4515C55.4554 30.3545 55.3177 30.2363 55.1987 30.1006C53.1125 27.5844 51.0543 25.0473 48.9909 22.5153C48.8001 22.2932 48.6243 22.0588 48.4645 21.8135C48.2472 21.4862 48.1626 21.0885 48.2278 20.701C48.293 20.3136 48.503 19.9655 48.8154 19.7272C49.4172 19.2991 50.2454 19.4307 50.7911 20.129C51.707 21.3011 52.5896 22.5013 53.4617 23.7085C54.6548 25.3613 55.855 27.0107 56.9709 28.7109C57.2148 29.0829 57.2534 29.6882 57.1657 30.1427C57.1462 30.233 57.0967 30.314 57.0253 30.3725Z" fill="url(#paint3_linear_413_464)"/>
<path d="M56.162 19.3693C56.1936 18.3358 56.6077 17.8077 57.3744 17.5848C58.1412 17.362 58.8009 17.534 59.2607 18.1972C59.474 18.5207 59.6345 18.876 59.7362 19.25C60.517 21.9451 61.2697 24.6507 62.0505 27.3458C62.2453 28.0161 62.2102 28.6091 61.5241 28.9004C60.8381 29.1917 60.3187 28.8197 60.0309 28.1986C58.8097 25.5655 57.6037 22.9236 56.4129 20.2729C56.2987 19.981 56.2147 19.6783 56.162 19.3693Z" fill="url(#paint4_linear_413_464)"/>
<path d="M44.5675 26.0018C44.7853 25.7536 45.0879 25.5957 45.416 25.559C45.7442 25.5223 46.0742 25.6095 46.3414 25.8035C46.3625 25.8187 46.3835 25.8363 46.4046 25.8561C48.4101 27.6388 50.3946 29.4461 52.3861 31.2428C52.8669 31.678 53.1441 32.2061 52.6984 32.7676C52.2264 33.3589 51.7456 32.9676 51.2684 32.643C49.1628 31.2095 47.0415 29.7795 44.9026 28.3863C44.2008 27.9301 43.8849 27.3125 44.1744 26.5861C44.2704 26.3699 44.4034 26.1721 44.5675 26.0018Z" fill="url(#paint5_linear_413_464)"/>
<path d="M89.0243 27.6599C89.5507 28.2951 89.3911 29.2303 88.7541 29.7514C88.6824 29.8107 88.6048 29.8624 88.5225 29.9058C86.7223 30.8481 84.8869 31.7271 83.0323 32.5606C82.9584 32.5921 82.8792 32.6093 82.7989 32.6115C82.6658 32.6153 82.5338 32.5854 82.4152 32.5246C82.2967 32.4637 82.1955 32.3738 82.1211 32.2633C82.0466 32.1528 82.0014 32.0252 81.9895 31.8925C81.9777 31.7598 81.9996 31.6263 82.0532 31.5043C82.0842 31.4327 82.131 31.3691 82.1901 31.3183C83.8254 30.0023 85.494 28.7215 87.2118 27.5125C87.8733 27.0475 88.5892 27.1318 89.0243 27.6599Z" fill="url(#paint6_linear_413_464)"/>
<path d="M61.6452 45.0237C61.6066 44.9886 61.5908 44.9815 61.5856 44.9675C61.2048 44.0095 60.4942 43.2866 59.831 42.5303C58.9868 41.5267 58.0064 40.6461 56.9183 39.9142C55.4813 38.9807 53.9354 38.4456 52.2019 38.5947C50.5823 38.7351 49.1506 39.2966 48.0838 40.5634C47.5955 41.1589 47.2312 41.8459 47.0123 42.5841C46.7934 43.3224 46.7242 44.0969 46.8089 44.8623C46.8936 45.6277 47.1304 46.3684 47.5054 47.0409C47.8804 47.7134 48.3861 48.3042 48.9926 48.7786C49.9163 49.4697 51.0168 49.8852 52.1668 49.977C54.6074 50.2296 56.7112 49.3874 58.5869 47.917C59.4642 47.2257 60.2626 46.4238 61.0925 45.6711C61.1259 45.6413 61.1382 45.5886 61.1961 45.5606C61.1101 46.0957 61.2996 46.487 61.7435 46.7239C61.8438 46.7686 61.9331 46.8345 62.0052 46.9173C62.0773 47 62.1305 47.0975 62.1611 47.2029C62.2213 47.385 62.3321 47.5461 62.4807 47.6673C62.6293 47.7885 62.8094 47.8648 62.9998 47.8872C63.0511 47.8916 63.1 47.9104 63.141 47.9414C63.182 47.9725 63.2134 48.0145 63.2314 48.0627C63.3525 48.289 63.5157 48.4961 63.6789 48.7382C63.1349 49.1137 62.5682 49.5137 61.9892 49.8998C60.5153 50.8823 58.9712 51.7298 57.2517 52.2352C55.0812 52.8756 52.8791 53.0423 50.6648 52.5299C47.8346 51.8755 45.7396 50.2191 44.6008 47.5521C43.2515 44.3937 43.7042 41.4109 45.9221 38.7579C47.0362 37.4296 48.5171 36.6313 50.1665 36.126C52.5352 35.3943 54.8408 35.5908 57.1113 36.5313C58.701 37.191 60.1521 38.0911 61.5751 39.0456C62.0383 39.3562 62.5068 39.658 62.9665 39.9721C63.2981 40.1984 63.6806 40.216 64.0543 40.2563C64.6316 40.3195 65.2124 40.3546 65.7914 40.4055C65.9265 40.4178 66.0599 40.4476 66.2441 40.4774C66.0687 40.6529 65.9406 40.7968 65.7984 40.9336C65.2721 41.46 64.7369 41.9759 64.2017 42.4917C63.7999 42.8813 63.7017 43.2427 63.9122 43.6182C64.2 44.1358 64.7299 44.406 65.2334 44.2341C65.5219 44.1268 65.7937 43.9791 66.0406 43.7954C66.3934 43.5435 66.7325 43.2729 67.0565 42.9848C67.2548 42.8093 67.4969 42.8093 67.7162 42.7321C68.1742 42.5567 68.4953 42.7093 68.841 43.0374C69.7306 43.8761 70.6605 44.6727 71.5782 45.4834C71.8765 45.7483 71.9028 45.9817 71.6519 46.3045C71.401 46.6274 71.0886 46.68 70.7746 46.4431C70.3657 46.1238 69.9622 45.7957 69.5621 45.4658C69.2884 45.2395 69.0357 44.9921 68.7515 44.764C68.676 44.7043 68.5023 44.6499 68.4637 44.6868C68.3479 44.7973 68.4637 44.8868 68.555 44.964C69.2007 45.543 69.8469 46.1221 70.4938 46.7011C70.7658 46.945 70.7956 47.2169 70.5798 47.4889C70.5352 47.5557 70.4774 47.6125 70.4099 47.6558C70.3423 47.6992 70.2665 47.7281 70.1873 47.7408C70.1081 47.7535 70.0271 47.7496 69.9494 47.7295C69.8717 47.7095 69.799 47.6735 69.7358 47.624C69.3849 47.3503 69.034 47.0608 68.683 46.7748C68.3321 46.4888 67.9724 46.1747 67.6092 45.8852C67.5288 45.8443 67.4412 45.8192 67.3513 45.8115C67.3794 45.9027 67.3794 46.0255 67.4408 46.0817C68.0268 46.6239 68.6199 47.1555 69.2147 47.6872C69.527 47.9679 69.5656 48.2346 69.341 48.4996C69.2824 48.5641 69.2116 48.6163 69.1327 48.6534C69.0538 48.6904 68.9684 48.7115 68.8813 48.7154C68.7942 48.7193 68.7072 48.706 68.6253 48.6762C68.5434 48.6463 68.4682 48.6006 68.4041 48.5417C67.925 48.1118 67.4566 47.6644 66.9775 47.2433C65.8569 46.2419 64.734 45.2424 63.6087 44.2446C63.5145 44.1492 63.4009 44.0751 63.2756 44.0272C63.1504 43.9794 63.0163 43.9589 62.8825 43.9672C62.7486 43.9755 62.6181 44.0124 62.4998 44.0754C62.3814 44.1384 62.2779 44.226 62.1962 44.3323C62.0242 44.5569 61.8435 44.7868 61.6452 45.0237Z" fill="black"/>
<path d="M72.4993 45.3465C72.7134 45.5816 72.9134 45.8273 73.1398 46.0484C74.4189 47.2871 75.7892 48.4048 77.3947 49.2067C78.7528 49.8857 80.1793 50.2472 81.7006 50.084C83.6587 49.8682 85.266 49.0312 86.2486 47.2608C86.6394 46.5661 86.8822 45.798 86.9615 45.0049C87.0407 44.2118 86.9549 43.4108 86.7092 42.6525C86.4636 41.8942 86.0636 41.195 85.5343 40.599C85.0051 40.003 84.3581 39.5231 83.6342 39.1895C81.3812 38.1368 79.1458 38.2683 76.9666 39.4106C75.6331 40.1125 74.5821 41.1389 73.5644 42.218C73.0082 42.8093 72.666 43.5059 72.3484 44.2306C72.2274 44.5095 72.0782 44.778 71.9256 45.0868C71.7782 44.9675 71.6747 44.8885 71.5746 44.8043C70.6219 43.9516 69.6656 43.1023 68.7216 42.2426C68.6624 42.1825 68.5885 42.1388 68.5073 42.1161C68.426 42.0933 68.3402 42.0921 68.2584 42.1127C67.9075 42.1794 67.5565 42.2426 67.2056 42.3215C67.0934 42.3492 66.9882 42.4 66.8968 42.4707C66.4178 42.8374 65.9493 43.2199 65.465 43.5796C65.0773 43.8691 64.7334 43.8305 64.4596 43.4989C64.4215 43.4624 64.3913 43.4183 64.3711 43.3695C64.3509 43.3207 64.341 43.2682 64.3422 43.2154C64.3433 43.1626 64.3555 43.1106 64.3778 43.0628C64.4001 43.0149 64.4322 42.9722 64.4719 42.9374C65.2404 42.1847 66.009 41.4302 66.7915 40.6915C67.0933 40.4055 67.4934 40.3037 67.8899 40.223C68.5181 40.0949 69.1498 39.9791 69.7709 39.8229C70.0229 39.7491 70.2624 39.6379 70.4815 39.4931C71.7238 38.7368 72.938 37.928 74.2048 37.2121C75.5499 36.4509 77.0347 35.9687 78.5703 35.7943C81.1619 35.5066 83.6272 35.9136 85.8468 37.3559C87.6996 38.5614 88.9577 40.237 89.4806 42.3952C90.3579 45.9852 88.8384 49.7647 85.7046 51.5491C84.6818 52.1213 83.5614 52.4979 82.4007 52.6598C80.7731 52.9081 79.1129 52.8414 77.5105 52.4633C75.9625 52.0978 74.4872 51.4737 73.1468 50.6174C72.1309 49.9787 71.1623 49.2663 70.1745 48.5873C70.1341 48.5642 70.0984 48.5339 70.0692 48.4978C70.0358 48.4504 69.992 48.389 70.0025 48.3452C70.013 48.3013 70.0902 48.2715 70.1411 48.268C70.3413 48.2641 70.5365 48.2049 70.705 48.0968C70.8735 47.9886 71.0087 47.8359 71.0956 47.6556C71.2402 47.323 71.4857 47.0443 71.7975 46.859C72.0083 46.7409 72.1742 46.5564 72.2694 46.3343C72.3645 46.1122 72.3837 45.8649 72.3239 45.6308C72.3081 45.5588 72.366 45.4676 72.3905 45.3851L72.4993 45.3465Z" fill="url(#paint7_linear_413_464)"/>
<path d="M63.184 47.4152C62.9419 47.3784 62.7541 47.3047 62.6576 47.0976C62.6202 47.0089 62.6109 46.9109 62.631 46.8168C62.6511 46.7226 62.6996 46.6369 62.7699 46.5712C63.0858 46.2326 63.3858 45.8694 63.6981 45.536C63.9367 45.2763 64.0806 45.2851 64.3842 45.5535C64.6158 45.7571 64.6474 45.9975 64.4509 46.2203C64.1543 46.5572 63.8525 46.8906 63.5384 47.2081C63.4296 47.292 63.3105 47.3616 63.184 47.4152Z" fill="url(#paint8_linear_413_464)"/>
<path d="M64.293 48.3101C64.1843 48.3158 64.0762 48.2906 63.9812 48.2375C63.8862 48.1844 63.8082 48.1056 63.756 48.01C63.7152 47.9256 63.7031 47.8301 63.7219 47.7381C63.7406 47.6462 63.7889 47.563 63.8596 47.5012C64.1736 47.1503 64.4877 46.7994 64.8088 46.4484C64.839 46.409 64.877 46.3762 64.9204 46.3521C64.9638 46.328 65.0118 46.3132 65.0613 46.3086C65.1107 46.304 65.1606 46.3097 65.2077 46.3253C65.2549 46.3409 65.2983 46.3661 65.3352 46.3993C65.6493 46.6432 65.7458 46.8608 65.5703 47.0696C65.2387 47.4661 64.8772 47.8381 64.5175 48.2101C64.4505 48.2587 64.374 48.2927 64.293 48.3101Z" fill="url(#paint9_linear_413_464)"/>
<path d="M61.6592 45.9238C61.7018 45.807 61.7559 45.6947 61.8207 45.5886C62.0716 45.2746 62.333 44.9693 62.5945 44.6639C62.662 44.5677 62.7638 44.5009 62.879 44.4774C62.9942 44.4539 63.114 44.4755 63.2138 44.5376C63.5384 44.7131 63.6051 44.9745 63.3665 45.2623C63.0945 45.5904 62.8015 45.8992 62.5067 46.2063C62.4432 46.2808 62.3547 46.3296 62.2578 46.3435C62.1609 46.3574 62.0622 46.3354 61.9803 46.2817C61.8577 46.1774 61.7497 46.057 61.6592 45.9238Z" fill="url(#paint10_linear_413_464)"/>
<path d="M65.4914 49.0979C65.3227 49.0035 65.1684 48.8853 65.0334 48.747C64.9106 48.5715 64.9895 48.3785 65.1352 48.2206C65.365 47.9697 65.5843 47.7082 65.8212 47.4643C66.0581 47.2204 66.3125 47.2345 66.5687 47.4871C66.7582 47.6731 66.7442 47.9117 66.5336 48.1434C66.323 48.375 66.1248 48.6101 65.9037 48.8259C65.7754 48.9297 65.6373 49.0208 65.4914 49.0979Z" fill="url(#paint11_linear_413_464)"/>
<path d="M67.2372 48.1048C67.5477 48.3873 67.8618 48.6698 68.1671 48.9487C67.9759 49.6506 66.9003 49.598 66.3669 49.0593C66.5125 48.9031 66.6617 48.747 66.8073 48.5873C66.9529 48.4276 67.0828 48.2785 67.2372 48.1048Z" fill="black"/>
<defs>
<linearGradient id="paint0_linear_413_464" x1="64.7368" y1="19.8834" x2="68.9392" y2="19.8834" gradientUnits="userSpaceOnUse">
<stop stop-color="#2E3192"/>
<stop offset="1" stop-color="#00AEEF"/>
</linearGradient>
<linearGradient id="paint1_linear_413_464" x1="76.0244" y1="25.1438" x2="88.6085" y2="25.1438" gradientUnits="userSpaceOnUse">
<stop stop-color="#2E3192"/>
<stop offset="1" stop-color="#00AEEF"/>
</linearGradient>
<linearGradient id="paint2_linear_413_464" x1="71.3535" y1="22.9522" x2="78.0246" y2="22.9522" gradientUnits="userSpaceOnUse">
<stop stop-color="#2E3192"/>
<stop offset="1" stop-color="#00AEEF"/>
</linearGradient>
<linearGradient id="paint3_linear_413_464" x1="48.203" y1="25.0718" x2="57.2078" y2="25.0718" gradientUnits="userSpaceOnUse">
<stop stop-color="#2E3192"/>
<stop offset="1" stop-color="#00AEEF"/>
</linearGradient>
<linearGradient id="paint4_linear_413_464" x1="56.162" y1="23.2453" x2="62.1523" y2="23.2453" gradientUnits="userSpaceOnUse">
<stop stop-color="#2E3192"/>
<stop offset="1" stop-color="#00AEEF"/>
</linearGradient>
<linearGradient id="paint5_linear_413_464" x1="44.0657" y1="29.311" x2="52.9212" y2="29.311" gradientUnits="userSpaceOnUse">
<stop stop-color="#2E3192"/>
<stop offset="1" stop-color="#00AEEF"/>
</linearGradient>
<linearGradient id="paint6_linear_413_464" x1="81.983" y1="29.9111" x2="89.3384" y2="29.9111" gradientUnits="userSpaceOnUse">
<stop stop-color="#2E3192"/>
<stop offset="1" stop-color="#00AEEF"/>
</linearGradient>
<linearGradient id="paint7_linear_413_464" x1="64.3438" y1="44.2516" x2="89.7245" y2="44.2516" gradientUnits="userSpaceOnUse">
<stop stop-color="#2E3192"/>
<stop offset="1" stop-color="#00AEEF"/>
</linearGradient>
<linearGradient id="paint8_linear_413_464" x1="62.626" y1="46.3782" x2="64.5895" y2="46.3782" gradientUnits="userSpaceOnUse">
<stop stop-color="#2E3192"/>
<stop offset="1" stop-color="#00AEEF"/>
</linearGradient>
<linearGradient id="paint9_linear_413_464" x1="63.7104" y1="47.3082" x2="65.6633" y2="47.3082" gradientUnits="userSpaceOnUse">
<stop stop-color="#2E3192"/>
<stop offset="1" stop-color="#00AEEF"/>
</linearGradient>
<linearGradient id="paint10_linear_413_464" x1="61.6592" y1="45.4097" x2="63.5104" y2="45.4097" gradientUnits="userSpaceOnUse">
<stop stop-color="#2E3192"/>
<stop offset="1" stop-color="#00AEEF"/>
</linearGradient>
<linearGradient id="paint11_linear_413_464" x1="64.9737" y1="48.1925" x2="66.702" y2="48.1925" gradientUnits="userSpaceOnUse">
<stop stop-color="#2E3192"/>
<stop offset="1" stop-color="#00AEEF"/>
</linearGradient>
</defs>
</svg>
